<svg width="19" height="19" viewBox="0 0 19 19" fill="none" xmlns="http://www.w3.org/2000/svg">
<path d="M3.16683 12.6667V3.16666H1.5835V1.58333H3.9585C4.16846 1.58333 4.36982 1.66674 4.51829 1.8152C4.66675 1.96367 4.75016 2.16503 4.75016 2.37499V11.875H14.5969L16.1802 5.54166H6.3335V3.95833H17.1952C17.3155 3.95833 17.4343 3.98577 17.5424 4.03855C17.6505 4.09134 17.7452 4.16808 17.8193 4.26295C17.8933 4.35782 17.9447 4.46832 17.9696 4.58605C17.9946 4.70378 17.9923 4.82564 17.9631 4.94237L15.9839 12.859C15.941 13.0302 15.8422 13.1822 15.703 13.2908C15.5639 13.3993 15.3925 13.4583 15.216 13.4583H3.9585C3.74853 13.4583 3.54717 13.3749 3.3987 13.2265C3.25024 13.078 3.16683 12.8766 3.16683 12.6667ZM4.75016 18.2083C4.33024 18.2083 3.92751 18.0415 3.63058 17.7446C3.33364 17.4476 3.16683 17.0449 3.16683 16.625C3.16683 16.2051 3.33364 15.8023 3.63058 15.5054C3.92751 15.2085 4.33024 15.0417 4.75016 15.0417C5.17009 15.0417 5.57282 15.2085 5.86975 15.5054C6.16668 15.8023 6.3335 16.2051 6.3335 16.625C6.3335 17.0449 6.16668 17.4476 5.86975 17.7446C5.57282 18.0415 5.17009 18.2083 4.75016 18.2083ZM14.2502 18.2083C13.8302 18.2083 13.4275 18.0415 13.1306 17.7446C12.8336 17.4476 12.6668 17.0449 12.6668 16.625C12.6668 16.2051 12.8336 15.8023 13.1306 15.5054C13.4275 15.2085 13.8302 15.0417 14.2502 15.0417C14.6701 15.0417 15.0728 15.2085 15.3697 15.5054C15.6667 15.8023 15.8335 16.2051 15.8335 16.625C15.8335 17.0449 15.6667 17.4476 15.3697 17.7446C15.0728 18.0415 14.6701 18.2083 14.2502 18.2083Z" fill="white"/>
</svg>
