<svg width="14" height="14" viewBox="0 0 14 14" fill="none" xmlns="http://www.w3.org/2000/svg">
<path d="M10.5179 9.69327L13.0163 12.1911L12.1909 13.0165L9.69309 10.5181C8.76368 11.2631 7.60767 11.6684 6.4165 11.6667C3.5185 11.6667 1.1665 9.31469 1.1665 6.41669C1.1665 3.51869 3.5185 1.16669 6.4165 1.16669C9.3145 1.16669 11.6665 3.51869 11.6665 6.41669C11.6682 7.60785 11.263 8.76387 10.5179 9.69327ZM9.34775 9.26044C10.0881 8.49912 10.5015 7.4786 10.4998 6.41669C10.4998 4.16035 8.67225 2.33335 6.4165 2.33335C4.16017 2.33335 2.33317 4.16035 2.33317 6.41669C2.33317 8.67244 4.16017 10.5 6.4165 10.5C7.47842 10.5017 8.49894 10.0883 9.26025 9.34794L9.34775 9.26044V9.26044Z" fill="black"/>
</svg>
