<svg width="14" height="14" viewBox="0 0 14 14" fill="none" xmlns="http://www.w3.org/2000/svg">
<path d="M10.5179 9.69324L13.0163 12.1911L12.1909 13.0165L9.69309 10.5181C8.76368 11.2631 7.60767 11.6684 6.4165 11.6667C3.5185 11.6667 1.1665 9.31466 1.1665 6.41666C1.1665 3.51866 3.5185 1.16666 6.4165 1.16666C9.3145 1.16666 11.6665 3.51866 11.6665 6.41666C11.6682 7.60782 11.263 8.76384 10.5179 9.69324ZM9.34775 9.26041C10.0881 8.49909 10.5015 7.47857 10.4998 6.41666C10.4998 4.16032 8.67225 2.33332 6.4165 2.33332C4.16017 2.33332 2.33317 4.16032 2.33317 6.41666C2.33317 8.67241 4.16017 10.5 6.4165 10.5C7.47842 10.5017 8.49894 10.0882 9.26025 9.34791L9.34775 9.26041Z" fill="white"/>
</svg>
